<?xml version="1.0" encoding="UTF-8" standalone="no"?><!DOCTYPE svg PUBLIC "-//W3C//DTD SVG 1.1//EN" "http://www.w3.org/Graphics/SVG/1.1/DTD/svg11.dtd"><svg width="100%" height="100%" viewBox="0 0 450 388" version="1.1" xmlns="http://www.w3.org/2000/svg" xmlns:xlink="http://www.w3.org/1999/xlink" xml:space="preserve" xmlns:serif="http://www.serif.com/" style="fill-rule:evenodd;clip-rule:evenodd;stroke-linecap:round;stroke-linejoin:round;stroke-miterlimit:1.5;"><rect x="82.5" y="75" width="285" height="116.604" style="fill:#005d9f;"/><ellipse cx="225" cy="244.595" rx="180" ry="142.5" style="fill:#005d9f;"/><circle cx="150.269" cy="244.595" r="90" style="fill:#fff;"/><circle cx="298.231" cy="244.595" r="90" style="fill:#fff;"/><circle cx="150.269" cy="244.595" r="30" style="fill:#005d9f;"/><circle cx="298.231" cy="244.595" r="30" style="fill:#005d9f;"/><path d="M200.798,135.948l0.71,-0" style="fill:none;stroke:#000;stroke-width:0.75px;"/><path d="M225,289.595c-0,0 11.25,-23.625 11.25,-33.75c-0,-6.209 -5.041,-11.25 -11.25,-11.25c-6.209,0 -11.25,5.041 -11.25,11.25c-0,10.125 11.25,33.75 11.25,33.75Z" style="fill:#005d9f;"/><path d="M225,-0l225,75l-225,75l-225,-75l225,-75Z" style="fill:#005d9f;"/><rect x="435" y="97.509" width="15" height="124.327" style="fill:#005d9f;"/><path d="M442.5,244.595l-7.5,-15l15,0l-7.5,15Z" style="fill:#005d9f;"/><rect x="435" y="75" width="15" height="15" style="fill:#005d9f;"/></svg>