<?xml version="1.0" standalone="no"?>
<!DOCTYPE svg PUBLIC "-//W3C//DTD SVG 20010904//EN"
 "http://www.w3.org/TR/2001/REC-SVG-20010904/DTD/svg10.dtd">
<svg version="1.0" xmlns="http://www.w3.org/2000/svg"
 width="900.000000pt" height="900.000000pt" viewBox="0 0 900.000000 900.000000"
 preserveAspectRatio="xMidYMid meet">
<metadata>
Created by potrace 1.14, written by Peter Selinger 2001-2017
</metadata>
<g transform="translate(0.000000,900.000000) scale(0.100000,-0.100000)"
fill="#000000" stroke="none">
<path d="M4337 8326 c-87 -29 -159 -54 -160 -54 -13 -4 -164 -54 -177 -59 -8
-3 -19 -7 -25 -8 -5 -2 -66 -22 -135 -45 -69 -23 -129 -43 -135 -44 -5 -1 -14
-4 -20 -7 -5 -4 -23 -10 -40 -14 -35 -10 -35 -10 -55 -18 -24 -10 -223 -77
-241 -81 -16 -4 -162 -53 -189 -63 -8 -3 -19 -7 -25 -9 -5 -1 -59 -19 -120
-39 -60 -20 -114 -38 -120 -40 -5 -1 -17 -5 -25 -8 -74 -29 -280 -94 -284 -89
-3 3 -6 -1 -6 -8 0 -7 -3 -10 -7 -7 -3 4 -12 2 -20 -4 -7 -6 -13 -9 -13 -6 0
3 -30 -5 -67 -19 -38 -14 -75 -27 -84 -29 -9 -2 -75 -24 -147 -48 -72 -25
-133 -43 -136 -39 -3 3 -6 -1 -6 -8 0 -7 -2 -11 -5 -8 -3 3 -43 -8 -88 -24
-45 -16 -89 -30 -97 -32 -8 -2 -112 -37 -230 -76 -118 -40 -219 -73 -225 -75
-5 -1 -17 -5 -25 -8 -38 -14 -131 -47 -135 -47 -6 -1 -11 -2 -95 -30 -74 -24
-88 -29 -95 -31 -2 0 -35 -12 -72 -26 -37 -13 -75 -26 -83 -28 -9 -2 -90 -28
-180 -59 -91 -32 -172 -59 -180 -61 -8 -2 -143 -46 -300 -98 -268 -90 -283
-96 -255 -107 17 -6 131 -45 255 -86 124 -41 232 -78 240 -81 8 -3 20 -7 27
-9 23 -4 88 -25 108 -34 11 -5 103 -37 205 -70 102 -33 192 -63 200 -67 8 -3
20 -7 25 -8 6 -2 66 -22 135 -45 69 -23 130 -43 135 -44 6 -2 17 -6 25 -9 8
-3 58 -19 110 -37 52 -17 107 -36 123 -42 l27 -10 0 -548 0 -548 -47 -53 c-27
-30 -51 -56 -54 -59 -21 -17 -229 -285 -229 -295 0 -2 -17 -30 -38 -62 -20
-32 -43 -67 -50 -78 -6 -11 -17 -31 -23 -45 -5 -13 -13 -27 -17 -30 -11 -8
-107 -215 -138 -295 -23 -63 -63 -184 -69 -210 -1 -5 -7 -30 -14 -55 -7 -25
-15 -56 -17 -70 -3 -14 -11 -61 -20 -105 -23 -124 -28 -196 -29 -380 0 -192 6
-305 16 -305 4 0 6 -8 5 -17 -2 -9 1 -37 6 -62 5 -25 11 -59 14 -76 9 -52 44
-189 57 -220 6 -16 12 -34 13 -40 1 -5 14 -44 29 -85 15 -41 33 -90 39 -107 6
-18 14 -33 18 -33 5 0 8 -5 8 -10 0 -10 57 -128 104 -216 18 -34 113 -185 138
-219 17 -22 155 -202 173 -224 38 -47 291 -297 330 -326 22 -17 47 -37 56 -46
56 -56 449 -325 469 -322 3 0 17 -8 32 -18 14 -10 31 -19 36 -19 6 0 12 -3 14
-8 3 -7 135 -74 262 -132 94 -44 262 -109 351 -137 44 -14 89 -29 100 -34 19
-8 127 -40 150 -45 6 -1 30 -7 55 -14 77 -22 253 -60 292 -64 20 -2 41 -6 45
-9 4 -3 33 -8 64 -11 31 -4 67 -9 80 -12 28 -5 98 -14 154 -19 22 -2 63 -6 90
-10 28 -3 89 -7 138 -9 48 -1 89 -5 92 -8 3 -3 25 -2 50 2 25 4 45 4 45 0 0
-8 55 -4 69 5 6 3 11 2 11 -4 0 -9 68 -6 78 4 2 2 14 0 27 -5 13 -5 25 -6 28
-3 3 3 45 7 94 9 95 4 164 9 258 20 33 4 69 8 80 9 31 3 153 22 190 29 11 2
40 7 65 12 25 4 47 8 50 9 6 1 66 13 95 19 47 9 233 58 270 70 22 8 67 22 100
31 33 10 71 22 85 28 14 6 27 11 30 12 56 14 283 108 415 171 289 138 584 332
805 529 108 96 278 273 355 370 55 69 165 225 165 233 0 5 9 17 20 27 11 10
20 22 20 27 0 5 12 27 27 51 34 54 103 189 103 202 0 6 6 17 13 23 6 7 12 16
13 20 0 4 6 19 12 35 7 15 17 39 24 55 6 15 12 30 13 35 2 4 4 9 5 12 1 3 3 8
5 13 1 4 7 21 14 37 7 17 14 37 16 45 2 8 15 56 29 106 15 50 29 102 31 115 3
13 9 47 15 74 10 50 13 74 28 190 9 75 8 424 -1 485 -4 25 -10 63 -12 85 -6
41 -7 50 -25 130 -5 28 -13 61 -16 75 -11 51 -45 166 -54 182 -6 10 -10 26
-10 36 0 10 -3 22 -7 26 -5 4 -8 11 -9 14 -3 24 -85 206 -136 302 -28 52 -56
105 -62 117 -6 13 -14 23 -18 23 -5 0 -8 4 -8 10 0 13 -120 190 -142 211 -10
9 -18 19 -18 23 0 7 -24 38 -61 77 -15 15 -33 37 -42 49 -8 11 -38 45 -66 75
l-51 53 2 552 3 551 95 33 c52 17 97 33 100 33 3 1 12 4 20 7 8 3 58 19 110
36 52 17 102 34 110 37 8 3 20 7 25 8 6 2 107 35 225 75 118 40 220 73 225 75
6 1 17 5 25 8 36 14 379 128 397 131 17 4 19 0 14 -25 -3 -16 -5 -60 -3 -99
l4 -70 149 0 150 0 -3 151 -3 151 -55 19 c-30 11 -62 22 -70 24 -17 3 -1096
362 -1120 372 -8 3 -19 7 -25 9 -5 1 -29 9 -53 18 -23 8 -44 16 -47 16 -3 0
-10 2 -17 5 -19 6 -1401 466 -1413 469 -12 4 12 -4 -210 72 -104 35 -197 66
-205 68 -8 2 -132 43 -275 91 -143 47 -266 88 -273 90 -7 3 -13 4 -15 3 -1 -1
-11 4 -23 10 -11 6 -32 13 -45 16 -13 3 -89 28 -169 56 -159 56 -153 54 -195
65 -16 4 -36 12 -42 18 -7 5 -13 6 -13 3 0 -4 -8 -2 -18 3 -11 6 -30 12 -43
15 -13 3 -55 16 -93 30 -38 14 -72 26 -75 26 -3 -1 -77 -25 -164 -54z"/>
<path d="M8698 6255 c-2 -97 0 -184 3 -193 4 -9 3 -26 -1 -38 -5 -11 -5 -27 0
-34 4 -7 4 -24 0 -39 -4 -14 -4 -35 0 -46 4 -11 5 -28 1 -37 -3 -10 -4 -446
-1 -970 l5 -953 148 -1 147 0 0 1243 0 1243 -150 0 -149 0 -3 -175z"/>
<path d="M8710 3771 c0 -10 7 -24 15 -31 8 -7 15 -16 15 -21 0 -17 102 -219
111 -219 5 0 9 4 9 9 0 5 12 29 26 55 14 25 45 86 69 135 l43 89 -144 1 c-134
0 -144 -1 -144 -18z"/>
</g>
</svg>
